<svg width="20" height="20" viewBox="0 0 20 20" fill="none" xmlns="http://www.w3.org/2000/svg">
<path d="M5.83334 17.5C5.375 17.5 4.98278 17.3369 4.65667 17.0108C4.33 16.6842 4.16667 16.2917 4.16667 15.8333V5H3.33334V3.33333H7.5V2.5H12.5V3.33333H16.6667V5H15.8333V15.8333C15.8333 16.2917 15.6703 16.6842 15.3442 17.0108C15.0175 17.3369 14.625 17.5 14.1667 17.5H5.83334ZM14.1667 5H5.83334V15.8333H14.1667V5ZM7.5 14.1667H9.16667V6.66667H7.5V14.1667ZM10.8333 14.1667H12.5V6.66667H10.8333V14.1667ZM5.83334 5V15.8333V5Z" fill="#F21D1D"/>
</svg>
