<svg width="18" height="18" viewBox="0 0 18 18" fill="none" xmlns="http://www.w3.org/2000/svg">
<path d="M12.3555 4.05611L13.944 5.64386L12.3555 4.05611ZM13.377 2.65736L9.08175 6.95262C8.85982 7.17424 8.70846 7.4566 8.64675 7.76411L8.25 9.75011L10.236 9.35262C10.5435 9.29112 10.8255 9.14037 11.0475 8.91837L15.3428 4.62311C15.4718 4.49404 15.5742 4.34081 15.6441 4.17217C15.7139 4.00353 15.7499 3.82278 15.7499 3.64024C15.7499 3.4577 15.7139 3.27695 15.6441 3.10831C15.5742 2.93967 15.4718 2.78644 15.3428 2.65736C15.2137 2.52829 15.0604 2.42591 14.8918 2.35605C14.7232 2.2862 14.5424 2.25024 14.3599 2.25024C14.1773 2.25024 13.9966 2.2862 13.8279 2.35605C13.6593 2.42591 13.5061 2.52829 13.377 2.65736V2.65736Z" stroke="#2D9CDB" stroke-width="2" stroke-linecap="round" stroke-linejoin="round"/>
<path d="M14.25 11.25V13.5C14.25 13.8978 14.092 14.2794 13.8107 14.5607C13.5294 14.842 13.1478 15 12.75 15H4.5C4.10218 15 3.72064 14.842 3.43934 14.5607C3.15804 14.2794 3 13.8978 3 13.5V5.25C3 4.85218 3.15804 4.47064 3.43934 4.18934C3.72064 3.90804 4.10218 3.75 4.5 3.75H6.75" stroke="#2D9CDB" stroke-width="2" stroke-linecap="round" stroke-linejoin="round"/>
</svg>
