<svg width="74" height="82" viewBox="0 0 74 82" fill="none" xmlns="http://www.w3.org/2000/svg">
<path fill-rule="evenodd" clip-rule="evenodd" d="M3.40796 8.04818C5.40643 7.72121 7.29158 9.07623 7.61855 11.0747L16.0629 62.6867C16.391 64.6922 17.2682 66.5678 18.5973 68.1051C19.9263 69.6423 21.655 70.7814 23.5919 71.3959C23.5921 71.396 23.5917 71.3958 23.5919 71.3959L24.7946 71.7772C32.7354 74.2982 41.2633 74.2986 49.2042 71.7776L50.4078 71.396C50.4079 71.396 50.4076 71.396 50.4078 71.396C52.3443 70.7817 54.0732 69.6429 55.4022 68.1062C56.7313 66.5694 57.6087 64.6945 57.9373 62.6895L66.3814 11.0747C66.7084 9.07626 68.5935 7.72123 70.592 8.04818C72.5905 8.37513 73.9455 10.2603 73.6186 12.2587L65.1742 63.8744C64.6267 67.2161 63.1641 70.3418 60.949 72.9032C58.7339 75.4645 55.8527 77.3623 52.6249 78.3861L51.4231 78.7672C42.0385 81.7465 31.9615 81.7465 22.5769 78.7672L21.3754 78.3862C18.147 77.3621 15.2649 75.4634 13.0497 72.9012C10.8346 70.339 9.37258 67.2133 8.82578 63.8708C8.82577 63.8707 8.82578 63.8708 8.82578 63.8708L0.381443 12.2588C0.0544688 10.2603 1.40949 8.37516 3.40796 8.04818Z" fill="#E0E0E0"/>
<path fill-rule="evenodd" clip-rule="evenodd" d="M9.12761 11.6667C10.3892 12.2078 12.1684 12.7634 14.4609 13.2728C20.1019 14.5264 28.0726 15.3334 37 15.3334C45.9274 15.3334 53.8981 14.5264 59.5391 13.2728C61.8316 12.7634 63.6108 12.2078 64.8724 11.6667C63.6108 11.1257 61.8316 10.5701 59.5391 10.0607C53.8981 8.80709 45.9274 8.00008 37 8.00008C28.0726 8.00008 20.1019 8.80709 14.4609 10.0607C12.1684 10.5701 10.3892 11.1257 9.12761 11.6667ZM12.8701 2.90195C19.1727 1.50136 27.702 0.666748 37 0.666748C46.298 0.666748 54.8273 1.50136 61.1299 2.90195C64.2515 3.59563 67.0273 4.47103 69.1121 5.56635C70.1507 6.11202 71.1975 6.80445 72.0269 7.70507C72.8743 8.62535 73.6667 9.96511 73.6667 11.6667C73.6667 13.3684 72.8743 14.7081 72.0269 15.6284C71.1975 16.529 70.1507 17.2215 69.1121 17.7671C67.0273 18.8625 64.2515 19.7379 61.1299 20.4315C54.8273 21.8321 46.298 22.6667 37 22.6667C27.702 22.6667 19.1727 21.8321 12.8701 20.4315C9.7485 19.7379 6.97267 18.8625 4.88792 17.7671C3.84932 17.2215 2.80247 16.529 1.97315 15.6284C1.12572 14.7081 0.333336 13.3684 0.333336 11.6667C0.333336 9.96511 1.12572 8.62535 1.97315 7.70507C2.80247 6.80445 3.84932 6.11202 4.88792 5.56635C6.97267 4.47103 9.7485 3.59563 12.8701 2.90195Z" fill="#E0E0E0"/>
</svg>
