<svg width="32" height="32" viewBox="0 0 32 32" fill="none" xmlns="http://www.w3.org/2000/svg">
<path fill-rule="evenodd" clip-rule="evenodd" d="M14.8703 4.24533C14.8623 4.24967 14.8543 4.25394 14.8462 4.25813L5.22656 9.24539V19.0863C5.22681 19.2991 5.28794 19.5081 5.40366 19.6915C5.51944 19.875 5.68566 20.0263 5.88511 20.1297L14.8449 24.7779C15.0351 24.8765 15.2489 24.9282 15.4664 24.9282C15.6838 24.9282 15.8977 24.8765 16.0878 24.7779L25.0473 20.1298C25.2469 20.0264 25.4135 19.8748 25.5293 19.6912C25.645 19.5077 25.7061 19.2986 25.7062 19.0856C25.7062 19.0855 25.7062 19.0857 25.7062 19.0856V9.24544L16.0878 4.25813C15.8977 4.15957 15.6838 4.10785 15.4664 4.10785C15.2585 4.10785 15.054 4.1551 14.8703 4.24533ZM13.5674 2.18752C13.5788 2.18114 13.5904 2.17492 13.6021 2.16885C14.1724 1.87317 14.814 1.71802 15.4664 1.71802C16.1187 1.71802 16.7603 1.87317 17.3307 2.16885L26.9498 7.15647C27.3486 7.36353 27.6815 7.66666 27.9128 8.0339C28.1442 8.40113 28.2662 8.81941 28.2661 9.24544C28.2661 9.24545 28.2661 9.24542 28.2661 9.24544V19.0856C28.266 19.7248 28.0827 20.3527 27.7353 20.9036C27.388 21.4545 26.8891 21.9086 26.2905 22.219L17.331 26.867C16.7607 27.1627 16.1187 27.318 15.4664 27.318C14.814 27.318 14.1724 27.1629 13.6021 26.8672L4.64225 22.219C4.04391 21.9087 3.54525 21.4549 3.19789 20.9043C2.85054 20.3538 2.66712 19.7266 2.66661 19.0877L2.66661 9.24549C2.66661 9.24547 2.66661 9.2455 2.66661 9.24549C2.6666 8.81946 2.78858 8.40113 3.01992 8.0339C3.25127 7.66666 3.58358 7.36383 3.98243 7.15677L13.5674 2.18752Z" fill="white"/>
<path fill-rule="evenodd" clip-rule="evenodd" d="M8.67376 4.84974C9.05495 4.36369 9.76408 4.21852 10.3281 4.51107L21.8479 10.4857C22.2543 10.6964 22.5063 11.0963 22.5063 11.5302V15.7124C22.5063 16.1895 22.2023 16.6209 21.733 16.8097C21.2637 16.9986 19.6779 11.5509 19.3064 11.2233L8.82767 6.42434C8.35855 6.01072 8.29258 5.33579 8.67376 4.84974ZM18.6664 12.2333L19.9463 12.9403V12.2333H18.6664ZM6.66852 14.3277C7.01266 13.7513 7.79222 13.5444 8.4097 13.8657L12.2496 15.8636C12.8671 16.1849 13.0887 16.9126 12.7446 17.4891C12.4004 18.0655 11.6209 18.2724 11.0034 17.9511L7.16344 15.9532C6.54596 15.6319 6.32437 14.9042 6.66852 14.3277Z" fill="white"/>
<path fill-rule="evenodd" clip-rule="evenodd" d="M2.82774 7.96249C3.17104 7.3856 3.9503 7.17775 4.56825 7.49825L15.4664 13.1504L26.3646 7.49825C26.9826 7.17775 27.7618 7.3856 28.1051 7.96249C28.4484 8.53938 28.2258 9.26685 27.6078 9.58734L16.7464 15.2205V26.4666H14.1865V15.2205L3.32503 9.58734C2.70707 9.26685 2.48443 8.53938 2.82774 7.96249Z" fill="white"/>
</svg>
